<mxfile host="app.diagrams.net" modified="2023-05-23T02:43:36.698Z" agent="Mozilla/5.0 (Windows NT 10.0; Win64; x64) AppleWebKit/537.36 (KHTML, like Gecko) Chrome/113.0.0.0 Safari/537.36" etag="JGqoolXb6k-v-frxmZp3" version="21.2.9" type="github">
  <diagram id="C5RBs43oDa-KdzZeNtuy" name="Page-1">
    <mxGraphModel dx="1434" dy="764" grid="1" gridSize="10" guides="1" tooltips="1" connect="1" arrows="1" fold="1" page="1" pageScale="1" pageWidth="827" pageHeight="1169" math="0" shadow="0">
      <root>
        <mxCell id="WIyWlLk6GJQsqaUBKTNV-0" />
        <mxCell id="WIyWlLk6GJQsqaUBKTNV-1" parent="WIyWlLk6GJQsqaUBKTNV-0" />
        <mxCell id="vnZFsOBLfJdddn84wesX-0" value="爬虫侧" style="swimlane;whiteSpace=wrap;html=1;" vertex="1" parent="WIyWlLk6GJQsqaUBKTNV-1">
          <mxGeometry x="30" y="150" width="160" height="460" as="geometry" />
        </mxCell>
        <mxCell id="vnZFsOBLfJdddn84wesX-4" value="从云天获取到所有素材的信息，包括永久的缩略图和素材链接" style="rounded=1;whiteSpace=wrap;html=1;" vertex="1" parent="vnZFsOBLfJdddn84wesX-0">
          <mxGeometry x="20" y="40" width="120" height="60" as="geometry" />
        </mxCell>
        <mxCell id="vnZFsOBLfJdddn84wesX-6" value="没有上传到云天的头条素材会返回空预览链接" style="strokeWidth=2;html=1;shape=mxgraph.flowchart.document2;whiteSpace=wrap;size=0.25;" vertex="1" parent="vnZFsOBLfJdddn84wesX-0">
          <mxGeometry x="50" y="160" width="100" height="60" as="geometry" />
        </mxCell>
        <mxCell id="vnZFsOBLfJdddn84wesX-1" value="数据侧" style="swimlane;whiteSpace=wrap;html=1;" vertex="1" parent="WIyWlLk6GJQsqaUBKTNV-1">
          <mxGeometry x="190" y="150" width="160" height="460" as="geometry" />
        </mxCell>
        <mxCell id="vnZFsOBLfJdddn84wesX-9" style="edgeStyle=orthogonalEdgeStyle;rounded=0;orthogonalLoop=1;jettySize=auto;html=1;" edge="1" parent="vnZFsOBLfJdddn84wesX-1" source="vnZFsOBLfJdddn84wesX-5" target="vnZFsOBLfJdddn84wesX-8">
          <mxGeometry relative="1" as="geometry" />
        </mxCell>
        <mxCell id="vnZFsOBLfJdddn84wesX-5" value="数据侧存储、更新素材信息" style="rounded=1;whiteSpace=wrap;html=1;" vertex="1" parent="vnZFsOBLfJdddn84wesX-1">
          <mxGeometry x="20" y="120" width="120" height="60" as="geometry" />
        </mxCell>
        <mxCell id="vnZFsOBLfJdddn84wesX-11" style="edgeStyle=orthogonalEdgeStyle;rounded=0;orthogonalLoop=1;jettySize=auto;html=1;" edge="1" parent="vnZFsOBLfJdddn84wesX-1" source="vnZFsOBLfJdddn84wesX-8" target="vnZFsOBLfJdddn84wesX-10">
          <mxGeometry relative="1" as="geometry" />
        </mxCell>
        <mxCell id="vnZFsOBLfJdddn84wesX-8" value="根据媒体账号和映射表获取爬虫账号" style="rounded=1;whiteSpace=wrap;html=1;" vertex="1" parent="vnZFsOBLfJdddn84wesX-1">
          <mxGeometry x="20" y="230" width="120" height="60" as="geometry" />
        </mxCell>
        <mxCell id="vnZFsOBLfJdddn84wesX-10" value="填充素材完整信息" style="rounded=1;whiteSpace=wrap;html=1;" vertex="1" parent="vnZFsOBLfJdddn84wesX-1">
          <mxGeometry x="20" y="350" width="120" height="60" as="geometry" />
        </mxCell>
        <mxCell id="vnZFsOBLfJdddn84wesX-2" value="创意平台" style="swimlane;whiteSpace=wrap;html=1;" vertex="1" parent="WIyWlLk6GJQsqaUBKTNV-1">
          <mxGeometry x="350" y="150" width="160" height="460" as="geometry" />
        </mxCell>
        <mxCell id="vnZFsOBLfJdddn84wesX-12" value="通过接口获取到数据侧的素材信息" style="rounded=1;whiteSpace=wrap;html=1;" vertex="1" parent="vnZFsOBLfJdddn84wesX-2">
          <mxGeometry x="20" y="350" width="120" height="60" as="geometry" />
        </mxCell>
        <mxCell id="vnZFsOBLfJdddn84wesX-3" value="媒体对接平台" style="swimlane;whiteSpace=wrap;html=1;" vertex="1" parent="WIyWlLk6GJQsqaUBKTNV-1">
          <mxGeometry x="510" y="150" width="160" height="460" as="geometry" />
        </mxCell>
        <mxCell id="vnZFsOBLfJdddn84wesX-14" value="获取未上传到云天的头条素材缩略图和素材预览链接" style="rounded=1;whiteSpace=wrap;html=1;" vertex="1" parent="vnZFsOBLfJdddn84wesX-3">
          <mxGeometry x="20" y="350" width="120" height="60" as="geometry" />
        </mxCell>
        <mxCell id="vnZFsOBLfJdddn84wesX-7" style="edgeStyle=orthogonalEdgeStyle;rounded=0;orthogonalLoop=1;jettySize=auto;html=1;entryX=0;entryY=0.5;entryDx=0;entryDy=0;" edge="1" parent="WIyWlLk6GJQsqaUBKTNV-1" source="vnZFsOBLfJdddn84wesX-4" target="vnZFsOBLfJdddn84wesX-5">
          <mxGeometry relative="1" as="geometry">
            <Array as="points">
              <mxPoint x="110" y="300" />
            </Array>
          </mxGeometry>
        </mxCell>
        <mxCell id="vnZFsOBLfJdddn84wesX-13" style="edgeStyle=orthogonalEdgeStyle;rounded=0;orthogonalLoop=1;jettySize=auto;html=1;entryX=0;entryY=0.5;entryDx=0;entryDy=0;" edge="1" parent="WIyWlLk6GJQsqaUBKTNV-1" source="vnZFsOBLfJdddn84wesX-10" target="vnZFsOBLfJdddn84wesX-12">
          <mxGeometry relative="1" as="geometry" />
        </mxCell>
        <mxCell id="vnZFsOBLfJdddn84wesX-15" style="edgeStyle=orthogonalEdgeStyle;rounded=0;orthogonalLoop=1;jettySize=auto;html=1;" edge="1" parent="WIyWlLk6GJQsqaUBKTNV-1" source="vnZFsOBLfJdddn84wesX-12" target="vnZFsOBLfJdddn84wesX-14">
          <mxGeometry relative="1" as="geometry" />
        </mxCell>
      </root>
    </mxGraphModel>
  </diagram>
</mxfile>
